<svg class="s-acc__mobile-menu-title-arrow" width="11" height="7" viewBox="0 0 11 7" fill="none" xmlns="http://www.w3.org/2000/svg">
    <path d="M5.51185 6.99985C5.75819 6.99771 5.99409 6.89154 6.1696 6.70381L10.7205 1.7612C10.8989 1.56833 10.9994 1.30639 11 1.03303C11.0006 0.759658 10.9011 0.497245 10.7235 0.303515C10.5459 0.109786 10.3047 0.00060888 10.053 2.49792e-06C9.80134 -0.000603884 9.55972 0.10741 9.38134 0.300282L5.5 4.51567L1.61866 0.300281C1.44028 0.107409 1.19866 -0.00060425 0.946957 2.09988e-06C0.695251 0.00060845 0.454083 0.109785 0.276496 0.303515C0.0989084 0.497244 -0.000556025 0.759657 1.86219e-06 1.03303C0.000560703 1.30639 0.101082 1.56832 0.279459 1.7612L4.83041 6.70381C4.92018 6.79986 5.02668 6.87551 5.14368 6.92634C5.26069 6.97717 5.38585 7.00216 5.51185 6.99985Z" fill="#181818"></path>
</svg>