<svg width="6" height="10" viewBox="0 0 6 10" fill="none" xmlns="http://www.w3.org/2000/svg">
<g clip-path="url(#clip0_369_2)">
<path d="M5.99987 5.01077C5.99804 5.23472 5.90704 5.44917 5.74613 5.60874L1.50959 9.74595C1.34428 9.90811 1.11977 9.99949 0.885448 10C0.651135 10.0005 0.426208 9.91009 0.260152 9.74866C0.0941077 9.58722 0.000522896 9.36796 2.17553e-06 9.13913C-0.000517439 8.91031 0.0920625 8.69066 0.257388 8.5285L3.87058 5L0.257388 1.4715C0.0920625 1.30935 -0.000517439 1.08969 2.17553e-06 0.86087C0.000522896 0.632047 0.0941077 0.412803 0.260152 0.251361C0.426208 0.089917 0.651135 -0.000505417 0.885448 2.12513e-06C1.11977 0.000509667 1.34428 0.0918929 1.50959 0.254053L5.74613 4.39128C5.82846 4.47289 5.8933 4.56971 5.93687 4.67608C5.98044 4.78245 6.00185 4.89623 5.99987 5.01077Z" fill="#6B6B6B"/>
</g>
<defs>
<clipPath id="clip0_369_2">
<rect width="6" height="10" fill="white"/>
</clipPath>
</defs>
</svg>
